<svg width="43" height="44" xmlns="http://www.w3.org/2000/svg">
    <g fill="none" fill-rule="evenodd">
        <path fill="#FFF" d="M8 5h34.5v36H8z"/>
        <path d="M34.9 11.3l1.4-3.7h6.2V.9H.1v42.4h42.4v-6.7h-5.9L34.4 34l-2.2 2.5H15.6V23.2h-5.5L17 7.7h6.7l1.6 3.5V7.7h8.3l1.3 3.6zm-4.6 2.5v-1.5l.6 1.5 2.8 7.4h2.6l2.8-7.4.5-1.5v8.8h2.9V9.8h-4.8l-2.2 5.7-.6 1.6-.6-1.6-2.2-5.7h-4.8V21h3v-7.2zM24.1 21h3.3l-5-11.3h-3.9l-5 11.3h3.3l.9-2.2h5.5l.9 2.2zm-4.2-7.4l.6-1.4.6 1.4 1.2 2.9h-3.5l1.1-2.9zm-2 9.6v11.3h9.4V32h-6.6v-2h6.4v-2.4h-6.4v-2h6.6v-2.4h-9.4zm20 11.1h3.7l-5.3-5.6 5.3-5.6h-3.7l-3.4 3.7-3.4-3.7h-3.8l5.3 5.7-5.3 5.6h3.6l3.4-3.7 3.6 3.6zm1.4-5.5l3.2 3.3v-6.5l-3.2 3.2z" fill="#006FCF" fill-rule="nonzero"/>
    </g>
</svg>
