<svg xmlns="http://www.w3.org/2000/svg" width="120" height="36"><path fill="#000268" d="M17.055 6.459c0-3.567 2.907-6.459 6.49-6.459h70.736c3.585 0 6.49 2.892 6.49 6.459v23.083c0 3.565-2.905 6.458-6.49 6.458H23.545c-3.583 0-6.49-2.893-6.49-6.458V6.459z"/><path fill="#FFF" d="M19.718 6.68v22.643c0 2.229 1.817 4.036 4.058 4.036h37.06V2.644h-37.06c-2.241 0-4.058 1.808-4.058 4.036zm50.693 11.209c0 1.441-.713 2.433-1.894 2.433-1.043 0-1.912-.991-1.912-2.311 0-1.355.765-2.363 1.912-2.363 1.217-.001 1.894 1.042 1.894 2.241zm-6.932 8.268h3.126V21.24h.035c.592 1.078 1.773 1.477 2.868 1.477 2.691 0 4.134-2.223 4.134-4.898 0-2.188-1.372-4.569-3.874-4.569-1.424 0-2.744.574-3.371 1.842h-.035V13.46h-2.883v12.697zm14.432-6.514c0-.868.833-1.197 1.895-1.197.468 0 .921.033 1.32.052 0 1.059-.747 2.136-1.93 2.136-.729 0-1.285-.364-1.285-.991zm6.305 2.866c-.138-.711-.173-1.425-.173-2.136v-3.371c0-2.762-1.996-3.753-4.308-3.753-1.337 0-2.501.191-3.613.644l.054 2.121c.865-.487 1.875-.679 2.883-.679 1.127 0 2.048.331 2.067 1.564a9.11 9.11 0 0 0-1.46-.123c-1.667 0-4.673.331-4.673 3.093 0 1.964 1.598 2.848 3.387 2.848 1.286 0 2.155-.502 2.867-1.633h.035c0 .471.051.938.069 1.425h2.865zm1.407 3.648c.639.14 1.291.21 1.945.21 2.866 0 3.543-2.207 4.429-4.483l3.319-8.424h-3.128l-1.858 5.906h-.035L88.35 13.46h-3.37l3.665 9.257c-.227.8-.816 1.252-1.581 1.252-.436 0-.816-.053-1.234-.19l-.207 2.378z"/><path fill="#FF0007" d="M27.354 17.907c0-1.233.609-2.259 1.772-2.259 1.407 0 1.997 1.129 1.997 2.137 0 1.39-.886 2.327-1.997 2.327-.937-.001-1.772-.799-1.772-2.205zm6.793-4.448h-2.832v1.632h-.033c-.662-1.112-1.74-1.842-3.076-1.842-2.813 0-4.082 2.017-4.082 4.709 0 2.675 1.546 4.55 4.028 4.55 1.252 0 2.295-.487 3.042-1.546h.035v.487c0 1.771-.972 2.622-2.778 2.622-1.304 0-2.104-.277-3.058-.746l-.156 2.467c.728.262 1.962.574 3.457.574 3.648 0 5.454-1.199 5.454-4.917v-7.99zm5.284-3.769h-3.127v2.292h3.127V9.69zm-3.125 12.819h3.125V13.46h-3.125v9.049zm11.832-9.155a6.772 6.772 0 0 0-1.06-.105c-1.355 0-2.136.73-2.675 1.877h-.035v-1.667H41.52v9.049h3.126v-3.82c0-1.772.818-2.832 2.276-2.832.366 0 .711 0 1.059.103l.157-2.605zm5.383 7.175c-1.441 0-2.032-1.199-2.032-2.536 0-1.355.59-2.554 2.032-2.554 1.443 0 2.034 1.199 2.034 2.554 0 1.337-.591 2.536-2.034 2.536zm0 2.188c2.988 0 5.264-1.735 5.264-4.723 0-3.006-2.276-4.744-5.264-4.744-2.987 0-5.262 1.738-5.262 4.744 0 2.987 2.275 4.723 5.262 4.723z"/></svg>