<?xml version="1.0" encoding="utf-8"?>
<svg version="1.1" xmlns="http://www.w3.org/2000/svg" xmlns:xlink="http://www.w3.org/1999/xlink" height="26.33771939269883" width="33.82725292258647">
  <defs>
    <path id="path-1" opacity="1" fill-rule="evenodd" d="M33.827252922586545,10.496789059976518 C33.827252922586545,16.29462259071854 29.14438451799891,20.994314633358897 23.36580726874488,20.994314633358897 C17.588700769617923,20.994314633358897 12.90509698996675,16.29314956390688 12.90509698996675,10.496789059976528 C12.90509698996675,4.698955529234509 17.587965394554388,0 23.36580726874488,0 C29.14438451799891,-0.0007365134058501137 33.827252922586545,4.698219015828659 33.827252922586545,10.496789059976518Z"/>
    <path id="path-2" opacity="1" fill-rule="evenodd" d="M20.921420557556182,10.496789059976527 C20.921420557556182,16.294622590718546 16.238552152968563,20.994314633358904 10.459974903714558,20.994314633358904 C4.6828684045876185,20.993578119953042 0,16.293149563906866 0,10.496789059976527 C0,4.698955529234508 4.6828684045876185,0 10.460710278778091,0 C16.238552152968563,-0.0007365134058396471 20.921420557556182,4.698219015828669 20.921420557556182,10.496789059976527Z"/>
    <path id="path-3" opacity="1" fill-rule="evenodd" d="M16.91362646129336,2.2323721330897115 C14.473652000485924,4.153935608916166 12.905832365030392,7.14049746958167 12.905832365030392,10.495316033165228 C12.905832365030392,13.850134596748786 14.473652000485927,16.838169484225958 16.91362646129336,18.759732960052425 C19.354336297164338,16.838905997631798 20.919214432365735,13.850134596748799 20.919214432365735,10.495316033165228 C20.919214432365735,7.14049746958166 19.35286554703727,4.153935608916166 16.91362646129336,2.2323721330897115Z"/>
    <path id="path-4" opacity="1" fill-rule="evenodd" d="M2.3259913259596137,26.185997631096285 L1.731808274623745,26.185997631096285 L1.731808274623745,23.410815117905805 L2.312754574815992,23.410815117905805 L2.312754574815992,23.75108431140208 C2.312754574815992,23.75108431140208 2.8253109940995316,23.337163777322175 3.128285520275743,23.342319371163033 C3.7180563212304043,23.352630558844744 4.070300976663426,23.854932701624968 4.070300976663426,23.854932701624968 C4.070300976663426,23.854932701624968 4.357097251441878,23.342319371163033 5.001285807098092,23.342319371163033 C5.954331889438792,23.342319371163033 6.09478852657388,24.217297297296327 6.09478852657388,24.217297297296327 L6.09478852657388,26.174213416602893 L5.525608227398183,26.174213416602893 L5.525608227398183,24.449299020134703 C5.525608227398183,24.449299020134703 5.527078977525253,23.924901475179396 4.906422423902141,23.924901475179396 C4.267381493690669,23.924901475179396 4.209286863671444,24.449299020134703 4.209286863671444,24.449299020134703 L4.209286863671444,26.174213416602893 L3.614368437272041,26.174213416602893 L3.614368437272041,24.43677829223549 C3.614368437272041,24.43677829223549 3.5584799324434195,23.889548831699262 3.020920760999706,23.889548831699262 C2.325255950896078,23.889548831699262 2.312019199752457,24.450035533540543 2.312019199752457,24.450035533540543 L2.3259913259596137,26.185997631096285Z"/>
    <path id="path-5" opacity="1" fill-rule="evenodd" d="M20.37871376066777,23.340846344352606 C20.076474609555092,23.33569075051175 19.56465356533508,23.74887477118583 19.56465356533508,23.74887477118583 L19.56465356533508,23.41155163131288 L18.982236515015757,23.41155163131288 L18.982236515015757,26.18526111769177 L19.5778903164787,26.18526111769177 L19.56612431546215,24.450035533541833 C19.56612431546215,24.450035533541833 19.57862569154224,23.89102185851221 20.27576125177295,23.89102185851221 C20.404451887891483,23.89102185851221 20.50519827159571,23.921955421557332 20.586089528584502,23.96761925271918 L20.779493170294074,23.42775492624129 C20.661097785065014,23.37914504145608 20.52799489856527,23.344528911381783 20.37871376066777,23.340846344352606Z"/>
    <path id="path-6" opacity="1" fill-rule="evenodd" d="M28.741398983182066,23.340846344352606 C28.439895207132924,23.33569075051175 27.928074162912914,23.74887477118583 27.928074162912914,23.74887477118583 L27.928074162912914,23.41155163131288 L27.344921737530058,23.41155163131288 L27.344921737530058,26.18526111769177 L27.939840163929464,26.18526111769177 L27.92954491303998,24.450035533541833 C27.92954491303998,24.450035533541833 27.942046289120068,23.89102185851221 28.63918184935077,23.89102185851221 C28.767872485469304,23.89102185851221 28.867883494109996,23.921955421557332 28.94730400097172,23.96761925271918 L29.142913767871896,23.42775492624129 C29.024518382642846,23.37914504145608 28.890680121079566,23.344528911381783 28.741398983182066,23.340846344352606Z"/>
    <path id="path-7" opacity="1" fill-rule="evenodd" d="M6.656588409799042,24.797729608429336 C6.658053253549042,24.129638788116836 7.129427765267792,23.330566522491836 8.017062042611542,23.330566522491836 C8.560458038705292,23.330566522491836 8.942110870736542,23.760009881866836 8.943636749642792,23.760009881866836 L8.943636749642792,23.410888788116836 L9.529696319955292,23.410888788116836 L9.529696319955292,26.188232538116836 L8.945101593392792,26.188232538116836 L8.946566437142792,25.904663202179336 C8.946566437142792,25.904663202179336 8.537691925424042,26.272216913116836 8.042757843392792,26.272216913116836 C7.191195343392792,26.272216913116836 6.654391144174042,25.482666131866836 6.656588409799042,24.797729608429336 L8.995882843392792,24.824096795929336 C8.995882843392792,24.311523553741836 8.608309601205292,23.896118280304336 8.131808136361542,23.896118280304336 C7.653780792611542,23.896118280304336 7.267733429330292,24.311523553741836 7.267733429330292,24.824096795929336 C7.267733429330292,25.336792108429336 7.654513214486542,25.750610467804336 8.131808136361542,25.750610467804336 C8.609042023080292,25.750610467804336 8.995882843392792,25.336792108429336 8.995882843392792,24.824096795929336 L6.656588409799042,24.797729608429336Z"/>
    <path id="path-8" opacity="1" fill-rule="evenodd" d="M23.696749542611542,24.797729608429336 C23.698214386361542,24.129638788116836 24.168124054330292,23.330566522491836 25.057223175424042,23.330566522491836 C25.600130890267792,23.330566522491836 25.983126495736542,23.759277459991836 25.982272003549042,23.760009881866836 L25.982272003549042,23.410888788116836 L26.568392609017792,23.410888788116836 L26.568392609017792,26.188232538116836 L25.983797882455292,26.188232538116836 L25.986727569955292,25.904663202179336 C25.986727569955292,25.904663202179336 25.578585480111542,26.272216913116836 25.081454132455292,26.272216913116836 C24.230624054330292,26.272216913116836 23.694552276986542,25.482666131866836 23.696749542611542,24.797729608429336 L26.035982941049042,24.824096795929336 C26.035982941049042,24.311523553741836 25.647677276986542,23.896118280304336 25.171175812142792,23.896118280304336 C24.695345734017792,23.896118280304336 24.308565948861542,24.311523553741836 24.308565948861542,24.824096795929336 C24.308565948861542,25.336792108429336 24.693148468392792,25.750610467804336 25.171175812142792,25.750610467804336 C25.648409698861542,25.750610467804336 26.035982941049042,25.336792108429336 26.035982941049042,24.824096795929336 L23.696749542611542,24.797729608429336Z"/>
    <path id="path-9" opacity="1" fill-rule="evenodd" d="M29.306185577767792,24.797729608429336 C29.309847687142792,24.129760858429336 29.779757355111542,23.330566522491836 30.668856476205292,23.330566522491836 C31.210055206674042,23.330566522491836 31.594698761361542,23.760009881866836 31.594698761361542,23.760009881866836 L31.594698761361542,22.314941522491836 L32.18075833167404,22.314941522491836 L32.18075833167404,26.188232538116836 L31.596163605111542,26.188232538116836 L31.596163605111542,25.904663202179336 C31.596163605111542,25.904663202179336 31.188021515267792,26.272216913116836 30.693087433236542,26.272216913116836 C29.841524933236542,26.272216913116836 29.303988312142792,25.482666131866836 29.306185577767792,24.797729608429336 L31.646151398080292,24.824096795929336 C31.646151398080292,24.311523553741836 31.257845734017792,23.896118280304336 30.782076691049042,23.896118280304336 C30.304049347299042,23.896118280304336 29.920199249642792,24.311523553741836 29.920199249642792,24.824096795929336 C29.920199249642792,25.336792108429336 30.304049347299042,25.750610467804336 30.782076691049042,25.750610467804336 C31.260042999642792,25.750610467804336 31.646151398080292,25.336792108429336 31.646151398080292,24.824096795929336 L29.306185577767792,24.797729608429336Z"/>
    <path id="path-10" opacity="1" fill-rule="evenodd" d="M11.312274602351023,26.278798320231587 C10.707796300125656,26.278798320231587 10.148175876775895,25.906122536878506 10.148175876775895,25.906122536878506 L10.404821773949438,25.509141811132842 C10.404821773949438,25.509141811132842 10.934291819694286,25.753664261870433 11.312274602351025,25.753664261870433 C11.55936062369862,25.753664261870433 11.971170659277947,25.674857327445967 11.974847534595618,25.428125336490858 C11.980730535103893,25.16739959082486 11.284330349936713,25.087856142994575 11.284330349936713,25.087856142994575 C11.284330349936713,25.087856142994575 10.241568509844779,25.073862388283686 10.241568509844779,24.214351243672926 C10.241568509844779,23.673750403789203 10.762214054827211,23.329062129857903 11.429934612516547,23.329062129857903 C11.81380039568156,23.329062129857903 12.535203333008916,23.667121783136686 12.535203333008916,23.667121783136686 L12.245465557976319,24.12155055453757 C12.245465557976319,24.12155055453757 11.688051259817161,23.898386992569225 11.395371984530428,23.88881231829335 C11.147550588119298,23.87997415742332 10.848988312324288,23.997816302357094 10.848988312324288,24.214351243672926 C10.848988312324288,24.802825454935995 12.583738087202196,24.168687412511076 12.583738087202196,25.35742004953059 C12.581531962011589,26.138860773122722 11.874101150891388,26.278798320231587 11.312274602351023,26.278798320231587Z"/>
    <path id="path-11" opacity="1" fill-rule="evenodd" d="M13.544873295241729,22.60654247873299 L13.544873295241729,23.415234198341068 L13.027169250513452,23.415234198341068 L13.027169250513452,23.99855281576328 L13.544873295241729,23.99855281576328 L13.544873295241729,25.394245719822745 C13.544873295241729,25.394245719822745 13.49928004130259,26.337719392698826 14.51115612872604,26.337719392698826 C14.792069402996212,26.337719392698826 15.340659200392937,26.13075912565887 15.340659200392937,26.13075912565887 L15.106074555125437,25.523872079249895 C15.106074555125437,25.523872079249895 14.888403536319231,25.709473457520605 14.642052890035178,25.703581350273907 C14.172148224436643,25.691797135780536 14.187591100770868,25.390563152793547 14.187591100770868,25.390563152793547 L14.187591100770868,23.99855281576328 L15.152403184128111,23.99855281576328 L15.152403184128111,23.415234198341068 L14.187591100770868,23.415234198341068 L14.187591100770868,22.60654247873299 L13.544873295241729,22.60654247873299Z"/>
    <path id="path-12" opacity="1" fill-rule="evenodd" d="M15.636263702767792,24.832275506866836 C15.632601593392792,24.148803827179336 16.107638214486542,23.364379999054336 17.060702179330292,23.364379999054336 C18.487765167611542,23.364379999054336 18.338106964486542,25.020019647491836 18.338045929330292,25.020019647491836 L16.311373566049042,25.020019647491836 C16.311373566049042,25.020019647491836 16.360628937142792,25.761718866241836 17.117342804330292,25.761718866241836 C17.496065948861542,25.761718866241836 17.926241730111542,25.456054803741836 17.926241730111542,25.456054803741836 L18.196139191049042,25.928222772491836 C18.196139191049042,25.928222772491836 17.565890167611542,26.322265741241836 17.117342804330292,26.322265741241836 C16.070162628549042,26.322265741241836 15.639986847299042,25.534179803741836 15.636263702767792,24.832275506866836 L17.020968292611542,23.908569452179336 C17.005099151986542,23.908325311554336 16.989901398080292,23.908203241241836 16.975375030892792,23.908691522491836 C16.278231476205292,23.947754022491836 16.312044952767792,24.583984491241836 16.312044952767792,24.583984491241836 L17.754122589486542,24.583984491241836 C17.754122589486542,24.583984491241836 17.758578155892792,23.908691522491836 17.045992706674042,23.908691522491836 L17.020968292611542,23.908569452179336 L15.636263702767792,24.832275506866836Z"/>
    <path id="path-13" opacity="1" fill-rule="evenodd" d="M23.086364744601482,25.449484225259667 L23.359924268236302,25.993031118766737 C23.359924268236302,25.993031118766737 22.92752373087804,26.272169699578626 22.445117689199435,26.272169699578626 C21.445007602792572,26.272169699578626 20.889799429824052,25.51871648540826 20.889799429824052,24.805034995153044 C20.889799429824052,23.684798104876286 21.774455631256007,23.35557661246753 22.37158018284599,23.35557661246753 C22.91428697973442,23.35557661246753 23.38419164533294,23.668594809947898 23.38419164533294,23.668594809947898 L23.07901099396614,24.21287821686081 C23.07901099396614,24.21287821686081 22.894431853018993,23.924164961773045 22.3568726815753,23.924164961773045 C21.818578135068076,23.924164961773045 21.53398798548024,24.388168407449808 21.53398798548024,24.82933993754567 C21.53398798548024,25.325749973079233 21.86490676407075,25.746299127811668 22.364226432210646,25.746299127811668 C22.754710590947443,25.747772154623306 23.086364744601482,25.449484225259667 23.086364744601482,25.449484225259667Z"/>
  </defs>
  <g opacity="1">
    <g opacity="1">
      <g opacity="1">
        <use xlink:href="#path-1" fill="rgb(247,159,26)" fill-opacity="1"/>
      </g>
      <g opacity="1">
        <use xlink:href="#path-2" fill="rgb(234,0,27)" fill-opacity="1"/>
      </g>
      <g opacity="1">
        <use xlink:href="#path-3" fill="rgb(255,95,1)" fill-opacity="1"/>
      </g>
    </g>
    <g opacity="1">
      <g opacity="1">
        <use xlink:href="#path-4" fill="rgb(0,0,0)" fill-opacity="1"/>
      </g>
      <g opacity="1">
        <use xlink:href="#path-5" fill="rgb(0,0,0)" fill-opacity="1"/>
      </g>
      <g opacity="1">
        <use xlink:href="#path-6" fill="rgb(0,0,0)" fill-opacity="1"/>
      </g>
      <g opacity="1">
        <use xlink:href="#path-7" fill="rgb(0,0,0)" fill-opacity="1"/>
      </g>
      <g opacity="1">
        <use xlink:href="#path-8" fill="rgb(0,0,0)" fill-opacity="1"/>
      </g>
      <g opacity="1">
        <use xlink:href="#path-9" fill="rgb(0,0,0)" fill-opacity="1"/>
      </g>
      <g opacity="1">
        <use xlink:href="#path-10" fill="rgb(0,0,0)" fill-opacity="1"/>
      </g>
      <g opacity="1">
        <use xlink:href="#path-11" fill="rgb(0,0,0)" fill-opacity="1"/>
      </g>
      <g opacity="1">
        <use xlink:href="#path-12" fill="rgb(0,0,0)" fill-opacity="1"/>
      </g>
      <g opacity="1">
        <use xlink:href="#path-13" fill="rgb(0,0,0)" fill-opacity="1"/>
      </g>
    </g>
  </g>
</svg>