<svg xmlns="http://www.w3.org/2000/svg" width="120" height="36"><path fill="#009CDE" d="M25.205 11.738c.218-1.633 0-2.721-.873-3.731-.946-1.088-2.619-1.632-4.729-1.632h-6.185c-.363 0-.799.389-.873.777L10 24.404c0 .311.218.699.582.699h3.783l-.218 1.711c-.073.311.145.543.436.543h3.201c.365 0 .728-.232.801-.621v-.233l.654-4.041v-.155c.073-.389.437-.699.801-.699h.437c3.127 0 5.529-1.321 6.256-5.207.365-1.633.22-2.953-.653-3.885-.221-.312-.584-.545-.875-.778"/><path fill="#012169" d="M25.205 11.738c.218-1.633 0-2.721-.873-3.731-.946-1.088-2.619-1.632-4.729-1.632h-6.185c-.363 0-.799.389-.873.777L10 24.404c0 .311.218.699.582.699h3.783l1.019-6.449-.073.232c.073-.466.437-.777.873-.777h1.818c3.564 0 6.33-1.553 7.203-5.905-.072-.233 0-.311 0-.466"/><path fill="#003087" d="M16.33 11.738c.072-.234.218-.467.436-.622.145 0 .218-.078.363-.078h4.803a9.54 9.54 0 011.602.155c.144 0 .29 0 .436.078s.29.078.363.155h.219c.217.077.436.233.654.312.218-1.633 0-2.721-.873-3.809s-2.545-1.555-4.656-1.555H13.42c-.363 0-.799.311-.873.777L10 24.404c0 .311.218.699.582.699h3.783l1.019-6.449.946-6.916zm25.268-2.785h-6.061a.91.91 0 00-.855.699l-2.408 15.543c-.078.311.154.544.466.544h2.876a.91.91 0 00.854-.699l.622-4.197a.846.846 0 01.854-.698h1.943c3.963 0 6.295-1.943 6.916-5.752.233-1.632 0-2.953-.777-3.886-.855-1.01-2.409-1.554-4.43-1.554zm.7 5.673c-.312 2.176-2.021 2.176-3.575 2.176h-.932l.621-4.041c0-.233.232-.389.467-.389h.389c1.088 0 2.098 0 2.642.622.388.311.543.856.388 1.632zm17.33-.078h-2.876c-.232 0-.466.156-.466.39l-.155.776-.234-.312c-.621-.932-2.02-1.242-3.418-1.242-3.187 0-5.906 2.408-6.451 5.828-.311 1.71.078 3.342 1.089 4.43.854 1.01 2.176 1.477 3.651 1.477 2.565 0 4.041-1.633 4.041-1.633l-.154.778c-.078.31.154.621.466.621h2.644a.913.913 0 00.854-.699l1.555-9.946c.075-.157-.236-.468-.546-.468zm-3.964 5.597c-.311 1.631-1.555 2.797-3.264 2.797-.854 0-1.477-.233-1.942-.777-.467-.544-.622-1.243-.467-2.02.233-1.633 1.632-2.799 3.264-2.799.854 0 1.478.312 1.943.777.389.544.544 1.244.466 2.022zm19.428-5.597h-2.875a.814.814 0 00-.699.39l-4.041 5.905-1.709-5.673c-.078-.388-.467-.622-.777-.622h-2.876a.504.504 0 00-.466.7l3.186 9.402-3.029 4.197c-.234.311 0 .777.387.777h2.875a.819.819 0 00.701-.389l9.713-13.988c.232-.231-.002-.699-.39-.699z"/><path fill="#009CDE" d="M84.729 8.953h-6.062a.909.909 0 00-.854.699l-2.41 15.465c-.077.311.156.544.467.544h3.109c.311 0 .543-.233.543-.466l.699-4.43a.845.845 0 01.855-.699h1.943c3.963 0 6.295-1.943 6.916-5.752.232-1.631 0-2.953-.777-3.885-.931-.932-2.409-1.476-4.429-1.476zm.699 5.673c-.311 2.176-2.021 2.176-3.574 2.176h-.933l.621-4.041c0-.233.233-.389.467-.389h.388c1.088 0 2.099 0 2.643.622.388.311.466.856.388 1.632zm17.33-.078h-2.876c-.233 0-.466.156-.466.39l-.155.776-.233-.312c-.621-.932-2.021-1.242-3.42-1.242-3.186 0-5.905 2.408-6.449 5.828-.311 1.71.078 3.342 1.088 4.43.855 1.01 2.176 1.477 3.652 1.477 2.564 0 4.041-1.633 4.041-1.633l-.155.778c-.078.31.155.621.466.621h2.643a.91.91 0 00.854-.699l1.555-9.946c-.001-.157-.235-.468-.545-.468zm-4.041 5.597c-.311 1.631-1.555 2.797-3.264 2.797-.855 0-1.477-.233-1.943-.777-.466-.544-.621-1.243-.466-2.02.233-1.633 1.632-2.799 3.265-2.799.854 0 1.476.312 1.941.777.467.544.622 1.244.467 2.022zm7.46-10.803l-2.487 15.775c-.076.311.156.544.468.544h2.485c.39 0 .777-.312.855-.699l2.486-15.465c.078-.312-.154-.544-.465-.544h-2.799c-.31 0-.465.156-.543.389z"/></svg>