<svg width="49" height="9" xmlns="http://www.w3.org/2000/svg">
    <g fill="none" fill-rule="evenodd">
        <path d="m4.5 1.537.692 2.01 2.126.037-1.698 1.28.622 2.033L4.5 5.677l-1.742 1.22.622-2.033-1.698-1.28 2.126-.036.692-2.011zM14.5 1.537l.692 2.01 2.126.037-1.698 1.28.622 2.033-1.742-1.22-1.742 1.22.622-2.033-1.698-1.28 2.126-.036.692-2.011zM24.5 1.537l.692 2.01 2.126.037-1.698 1.28.622 2.033-1.742-1.22-1.742 1.22.622-2.033-1.698-1.28 2.126-.036.692-2.011zM34.5 1.537l.692 2.01 2.126.037-1.698 1.28.622 2.033-1.742-1.22-1.742 1.22.622-2.033-1.698-1.28 2.126-.036.692-2.011z" stroke="#666" fill="#666"/>
        <path d="m44.5.768.871 2.533 2.678.046-2.14 1.611.784 2.561L44.5 5.982 42.307 7.52l.783-2.56-2.139-1.612 2.678-.046L44.5.768z" stroke="#666" stroke-width=".5"/>
        <path d="M44.5 0v6.288L42.054 8h-.157l.903-2.948L41 3.695v-.6l2.45-.041L44.5 0z" fill="#666"/>
    </g>
</svg>
