<svg xmlns="http://www.w3.org/2000/svg" width="120" height="36"><path fill="#10298E" d="M20.025 29.811l.821-.08c.049.274.149.477.3.606s.355.192.611.192c.272 0 .476-.057.614-.172a.509.509 0 00.207-.402.38.38 0 00-.087-.253.713.713 0 00-.304-.181 9.45 9.45 0 00-.675-.182c-.452-.113-.769-.25-.952-.414a1.086 1.086 0 01-.384-.84c0-.213.06-.412.181-.597a1.13 1.13 0 01.521-.423 2.07 2.07 0 01.822-.146c.524 0 .919.115 1.184.346.265.229.404.536.417.92l-.843.037c-.036-.215-.113-.369-.232-.464-.119-.093-.297-.141-.535-.141-.244 0-.436.051-.575.151a.305.305 0 00-.134.26c0 .098.042.183.125.254.107.089.365.182.775.277.411.098.714.198.911.301.196.104.35.246.461.426.111.18.167.4.167.665 0 .239-.067.463-.199.673a1.21 1.21 0 01-.565.465c-.243.102-.546.153-.908.153-.529 0-.934-.122-1.217-.366-.283-.244-.452-.599-.507-1.065m4.275-2.819h.8v.74h-.8v-.74zm0 1.151h.8v3.026h-.8v-3.026zm4.548 3.026h-.8v-1.545c0-.326-.017-.538-.052-.634a.44.44 0 00-.444-.303.64.64 0 00-.373.113.568.568 0 00-.227.303c-.041.125-.061.356-.061.694v1.371h-.801v-3.026h.744v.444c.264-.342.596-.513.997-.513.177 0 .338.031.484.096s.257.145.332.243.127.212.157.336c.03.126.044.306.044.539v1.882zm.913.199l.915.11c.015.107.05.18.105.221.076.057.196.085.359.085.209 0 .366-.031.47-.095a.378.378 0 00.16-.201c.024-.067.037-.189.037-.368v-.442c-.239.327-.542.491-.906.491-.406 0-.729-.173-.966-.517-.186-.271-.279-.609-.279-1.014 0-.507.122-.895.366-1.162.244-.269.548-.401.91-.401.374 0 .683.163.926.491v-.424h.75v2.715c0 .357-.03.625-.089.801a.99.99 0 01-.248.417c-.106.1-.248.179-.426.235a2.203 2.203 0 01-.673.086c-.513 0-.877-.088-1.092-.264a.828.828 0 01-.321-.668l.002-.096zm.715-1.775c0 .321.062.556.187.706a.58.58 0 00.46.223.637.637 0 00.496-.229c.135-.152.202-.38.202-.68 0-.313-.064-.547-.193-.698a.621.621 0 00-.491-.228.59.59 0 00-.474.223c-.125.151-.187.377-.187.683m3.099-2.601h.8v4.177h-.8zm3.548 3.214l.798.133a1.31 1.31 0 01-.486.669c-.221.153-.498.229-.83.229-.527 0-.916-.172-1.169-.516-.199-.275-.299-.623-.299-1.043 0-.501.131-.894.393-1.178.263-.284.594-.426.994-.426.451 0 .806.148 1.066.445.261.299.385.754.374 1.367h-2.006c.005.237.07.422.193.555a.607.607 0 00.462.197.492.492 0 00.316-.103c.086-.067.15-.178.194-.329m.046-.81c-.006-.231-.066-.408-.18-.528a.55.55 0 00-.416-.181.557.557 0 00-.433.19c-.114.127-.17.3-.168.519h1.197zm3.424 1.773v-4.177h3.097v.706h-2.254v.927h2.097v.703h-2.097v1.137h2.334v.704h-3.177zm6.053 0v-.453a1.232 1.232 0 01-1.003.521 1.1 1.1 0 01-.547-.133.791.791 0 01-.351-.377c-.072-.162-.108-.385-.108-.67v-1.914h.801v1.391c0 .426.014.686.044.783.029.095.083.17.161.228a.495.495 0 00.296.083c.137 0 .26-.037.368-.111a.583.583 0 00.222-.281c.04-.11.06-.383.06-.815v-1.276h.8v3.026h-.743zm2.514 0h-.801v-3.026h.744v.431c.127-.203.242-.337.343-.402a.646.646 0 01.346-.097c.183 0 .358.051.527.15l-.247.698a.709.709 0 00-.377-.13.44.44 0 00-.284.092c-.078.062-.14.174-.184.336-.045.16-.067.5-.067 1.014v.934zm1.494-1.556c0-.266.066-.523.197-.772s.316-.438.557-.569a1.65 1.65 0 01.804-.197c.458 0 .834.148 1.126.447.292.297.439.672.439 1.125 0 .459-.148.838-.443 1.139-.296.301-.667.451-1.116.451-.277 0-.542-.062-.793-.188a1.286 1.286 0 01-.574-.551c-.131-.243-.197-.537-.197-.885m.821.043c0 .3.071.529.213.689a.681.681 0 00.528.239c.208 0 .384-.08.525-.239.141-.16.213-.392.213-.695 0-.297-.072-.524-.213-.685a.675.675 0 00-.525-.239c-.21 0-.385.08-.528.239-.142.161-.213.39-.213.691m4.905 1.513v-4.177h1.354c.513 0 .847.021 1.003.062.239.062.439.199.601.408.161.21.242.48.242.814 0 .256-.047.471-.14.646a1.152 1.152 0 01-.354.413c-.144.1-.29.165-.438.197-.201.04-.493.06-.874.06h-.55v1.576h-.844zm.844-3.471v1.186h.461c.333 0 .555-.022.667-.065a.558.558 0 00.263-.205.56.56 0 00.096-.325.541.541 0 00-.134-.376.578.578 0 00-.339-.186 4.07 4.07 0 00-.607-.028h-.407zm3.816 1.368l-.726-.131c.081-.293.222-.51.42-.65.201-.141.496-.211.89-.211.356 0 .623.043.798.127a.791.791 0 01.369.322c.07.129.105.369.105.717l-.008.934c0 .268.014.462.039.59.025.125.073.262.145.405h-.793a2.808 2.808 0 01-.077-.237 1.41 1.41 0 00-.028-.094 1.452 1.452 0 01-.439.299c-.154.067-.32.1-.498.1-.312 0-.557-.084-.736-.254a.84.84 0 01-.269-.641c0-.171.041-.322.122-.457a.805.805 0 01.344-.308c.146-.071.359-.134.636-.187.375-.07.634-.136.778-.197v-.079c0-.154-.037-.263-.114-.329-.076-.064-.22-.098-.431-.098a.558.558 0 00-.332.084.574.574 0 00-.195.295m1.071.65a5.223 5.223 0 01-.487.122c-.222.048-.368.094-.437.141a.331.331 0 00-.155.281c0 .112.041.209.125.29a.433.433 0 00.319.123.697.697 0 00.412-.142.497.497 0 00.191-.266c.021-.068.031-.199.031-.391v-.158zm1.371-1.573h.853l.724 2.148.707-2.148h.828l-1.068 2.912-.19.527a2.21 2.21 0 01-.201.404.896.896 0 01-.219.227.916.916 0 01-.306.135c-.12.033-.256.049-.408.049-.154 0-.305-.016-.453-.049l-.071-.625c.125.023.238.036.339.036.187 0 .324-.055.414-.163.088-.111.156-.25.204-.419l-1.153-3.034zm3.741 0h.737v.414c.265-.322.579-.481.942-.481.195 0 .363.039.506.118.142.08.259.201.35.363.133-.162.276-.283.43-.363.154-.079.318-.118.494-.118.223 0 .409.044.563.135a.83.83 0 01.345.397c.055.129.083.338.083.627v1.935h-.801v-1.729c0-.301-.026-.494-.082-.582-.075-.113-.188-.17-.342-.17a.556.556 0 00-.53.403c-.044.133-.066.342-.066.626v1.453h-.801v-1.658c0-.295-.014-.485-.042-.569a.356.356 0 00-.133-.191.419.419 0 00-.243-.062.583.583 0 00-.334.1.543.543 0 00-.212.288c-.043.125-.063.333-.063.624v1.47h-.801v-3.03zm7.175 2.063l.797.133c-.103.293-.264.517-.486.669-.221.153-.498.229-.83.229-.525 0-.915-.172-1.168-.516-.2-.275-.299-.623-.299-1.043 0-.501.131-.894.393-1.178s.594-.426.994-.426c.45 0 .807.148 1.066.445.26.299.385.754.373 1.367h-2.006c.006.237.07.422.193.555a.606.606 0 00.463.197c.125 0 .23-.035.315-.103a.626.626 0 00.195-.329m.045-.81c-.006-.231-.065-.408-.18-.528a.549.549 0 00-.416-.181.558.558 0 00-.434.19c-.114.127-.17.3-.168.519h1.198zm4.375 1.773h-.801v-1.545c0-.326-.018-.538-.052-.634a.44.44 0 00-.444-.303c-.139 0-.263.037-.373.113s-.187.176-.227.303c-.041.125-.062.356-.062.694v1.371h-.799v-3.026h.744v.444c.264-.342.596-.513.996-.513.176 0 .338.031.484.096s.257.145.332.243a.885.885 0 01.156.336c.029.126.045.306.045.539v1.882zm2.375-3.026v.639h-.549V30c0 .247.006.391.017.432l.071.102c.037.027.082.04.136.04.073 0 .181-.026.321-.077l.068.621c-.186.08-.396.119-.633.119a1.02 1.02 0 01-.391-.071.581.581 0 01-.254-.188.743.743 0 01-.113-.312 3.802 3.802 0 01-.025-.565v-1.318h-.367v-.639h.367v-.601l.803-.468v1.068h.549zm.448 2.162l.805-.121a.585.585 0 00.207.354c.104.081.25.122.438.122.207 0 .363-.038.468-.114a.255.255 0 00.105-.214c0-.062-.02-.11-.057-.151-.041-.037-.131-.072-.269-.104-.646-.144-1.055-.273-1.228-.392a.778.778 0 01-.359-.681c0-.262.104-.481.311-.661.207-.178.527-.267.963-.267.414 0 .722.067.924.202.201.135.34.334.416.598l-.756.141c-.032-.119-.094-.209-.184-.271s-.219-.094-.386-.094c-.211 0-.362.029-.453.088a.186.186 0 00-.091.162c0 .058.025.105.08.146.072.054.32.128.747.226.427.097.724.215.894.355.167.143.25.341.25.596 0 .277-.115.516-.347.715s-.575.299-1.029.299c-.411 0-.737-.084-.978-.25a1.173 1.173 0 01-.471-.684m9.054.864h-.918l-.364-.948h-1.669l-.346.948h-.895l1.627-4.177h.893l1.672 4.177zm-1.552-1.653l-.576-1.55-.563 1.55h1.139zm2.935 1.653h-.801v-3.026h.744v.431c.127-.203.242-.337.344-.402a.643.643 0 01.346-.097c.182 0 .357.051.527.15l-.248.698a.703.703 0 00-.376-.13.443.443 0 00-.285.092c-.078.062-.14.174-.185.336-.043.16-.066.5-.066 1.014v.934zm3.432-.963l.799.133a1.32 1.32 0 01-.486.669c-.223.153-.498.229-.83.229-.527 0-.916-.172-1.169-.516-.199-.275-.3-.623-.3-1.043 0-.501.131-.894.394-1.178s.594-.426.994-.426c.45 0 .806.148 1.065.445.262.299.385.754.373 1.367h-2.004c.004.237.069.422.192.555a.607.607 0 00.462.197c.125 0 .23-.035.316-.103.086-.067.15-.178.194-.329m.047-.81c-.007-.231-.066-.408-.181-.528a.55.55 0 00-.416-.181.556.556 0 00-.433.19c-.114.127-.17.3-.168.519h1.198zm2.218-.33l-.726-.131c.081-.293.222-.51.423-.65.198-.141.494-.211.887-.211.357 0 .623.043.799.127a.791.791 0 01.369.322c.07.129.106.369.106.717l-.009.934c0 .268.014.462.039.59.025.125.072.262.145.405h-.793a2.536 2.536 0 01-.076-.237c-.015-.047-.023-.078-.029-.094a1.452 1.452 0 01-.439.299c-.154.067-.32.1-.498.1-.312 0-.557-.084-.736-.254a.838.838 0 01-.27-.641c0-.171.041-.322.122-.457a.801.801 0 01.345-.308c.146-.071.358-.134.637-.187.373-.07.633-.136.777-.197v-.079c0-.154-.037-.263-.115-.329-.075-.064-.219-.098-.43-.098a.56.56 0 00-.332.084.587.587 0 00-.196.295m1.073.65a5.263 5.263 0 01-.488.122c-.221.048-.366.094-.436.141a.332.332 0 00-.156.281c0 .112.041.209.125.29.084.082.19.123.319.123a.7.7 0 00.413-.142.497.497 0 00.191-.266c.021-.068.031-.199.031-.391v-.158h.001zM37.774 10.577H32.3c0-.898-.105-1.501-.316-1.808-.326-.454-1.224-.681-2.696-.681-1.429 0-2.376.13-2.838.392-.463.263-.694.834-.694 1.713 0 .796.205 1.32.616 1.571.294.179.682.283 1.166.315l1.104.078c2.366.156 3.844.267 4.433.33 1.871.189 3.228.686 4.069 1.492.662.63 1.057 1.452 1.183 2.467.074.607.111 1.295.111 2.058 0 1.76-.169 3.049-.504 3.866-.61 1.499-1.979 2.444-4.109 2.843-.893.168-2.258.252-4.095.252-3.065 0-5.201-.182-6.408-.549-1.48-.449-2.456-1.359-2.929-2.73-.263-.763-.393-2.034-.393-3.813h5.474v.455c0 .949.273 1.559.818 1.831.377.188.833.286 1.368.298h2.013c1.027 0 1.682-.053 1.965-.158.503-.197.833-.516.991-.957.084-.271.126-.623.126-1.053 0-.962-.352-1.547-1.053-1.758-.263-.082-1.483-.199-3.662-.345-1.75-.125-2.965-.245-3.645-.361-1.792-.336-2.987-1.025-3.583-2.072-.524-.889-.785-2.234-.785-4.035 0-1.37.141-2.469.424-3.296.283-.827.74-1.454 1.37-1.884.922-.659 2.103-1.046 3.54-1.162a46.233 46.233 0 013.982-.157c2.298 0 3.935.132 4.911.394 2.382.64 3.573 2.432 3.573 5.378 0 .242-.018.603-.053 1.086m24.072 14.888V3.603h10.961c1.504 0 2.651.123 3.439.368 1.803.565 3.013 1.722 3.633 3.47.319.917.48 2.299.48 4.143 0 2.218-.178 3.811-.529 4.782-.703 1.918-2.15 3.024-4.336 3.31-.258.043-1.35.081-3.281.112l-.977.032h-3.508v5.645h-5.882zm5.883-10.716h3.668c1.164-.041 1.871-.131 2.125-.271.348-.191.582-.574.697-1.148.074-.382.111-.95.111-1.705 0-.925-.073-1.61-.223-2.058-.211-.627-.717-1.009-1.521-1.148-.159-.02-.539-.032-1.142-.032h-3.717v6.362zm25.189 6.939h-7.867l-1.057 3.777h-6.087l6.567-21.862h8.877L100 25.465h-5.959l-1.123-3.777zm-1.168-4.26l-2.757-9.477-2.677 9.477h5.434z"/><path fill="#FFBE00" d="M53.724 6.679a7.734 7.734 0 016.016 2.869l1.268-2.72a11.12 11.12 0 00-7.66-3.03c-4.637 0-8.603 2.8-10.23 6.764h-2.473l-1.461 3.13h3.182c-.024.291-.04.581-.04.878 0 .358.019.713.054 1.064h-1.599l-1.459 3.132h3.872c1.674 3.863 5.59 6.575 10.154 6.575 2.3 0 4.433-.688 6.2-1.866v-3.838a7.73 7.73 0 01-5.824 2.645 7.75 7.75 0 01-6.487-3.516h8.108l1.46-3.132H46.044a7.85 7.85 0 01-.046-1.942H57.71l1.46-3.13H47.01a7.755 7.755 0 016.714-3.883"/><path fill="#10298E" d="M53.724 6.773a7.632 7.632 0 015.943 2.834l.095.117.064-.136 1.268-2.719.028-.062-.049-.047a11.192 11.192 0 00-7.725-3.056c-2.263 0-4.439.661-6.296 1.912a10.917 10.917 0 00-4.021 4.91l.087-.058h-2.534l-.025.054-1.46 3.131-.062.134h3.329l-.094-.102c-.027.325-.04.614-.04.885 0 .351.019.713.055 1.073l.093-.103h-1.658l-.025.054-1.461 3.131-.062.135h4.02l-.087-.058c1.746 4.029 5.766 6.634 10.241 6.634 2.243 0 4.404-.65 6.253-1.883l.041-.027v-4.139l-.164.188a7.649 7.649 0 01-12.163-.863l-.078.146h8.168l.025-.055 1.46-3.132.063-.133H46.044l.093.08a7.823 7.823 0 01-.045-1.918l-.094.085h11.773l.025-.055 1.459-3.131.063-.133H47.01l.082.141a7.696 7.696 0 016.632-3.834m-6.714 3.882h12.16l-.085-.133-1.46 3.131.085-.054H45.913l-.009.085a8.152 8.152 0 00.047 1.964l.012.08h10.842l-.085-.134-1.46 3.131.085-.054h-8.283l.096.146a7.832 7.832 0 006.566 3.557 7.855 7.855 0 005.895-2.674l-.165-.062v3.838l.042-.078a11.046 11.046 0 01-6.148 1.851c-4.401 0-8.352-2.56-10.068-6.521l-.025-.056h-3.933l.085.134 1.46-3.132-.086.055h1.703l-.01-.104a10.77 10.77 0 01-.054-1.054c0-.266.013-.55.039-.87l.009-.101h-3.284l.085.133 1.46-3.131-.084.054h2.536l.023-.058a10.735 10.735 0 013.953-4.826 11.048 11.048 0 016.191-1.879 11 11 0 017.595 3.005l-.021-.109-1.267 2.72.157-.019a7.822 7.822 0 00-6.089-2.904 7.885 7.885 0 00-6.795 3.929l-.082.141h.164v-.001z"/></svg>