<?xml version="1.0" encoding="utf-8"?>
<svg version="1.1" xmlns="http://www.w3.org/2000/svg" xmlns:xlink="http://www.w3.org/1999/xlink" height="17.211217187357988" width="52.15036052785763">
  <defs>
    <path id="path-1" opacity="1" fill-rule="evenodd" d="M18.323095333067386,17.21115537848642 L21.034367795430587,0 L25.370439691939666,0 L22.659167229576465,17.21115537848642 L18.323095333067386,17.21115537848642Z"/>
    <path id="path-2" opacity="1" fill-rule="evenodd" d="M38.05391933352717,0.7004239815062403 C37.21688102556208,0.3605376514141463 35.90389681899314,0 34.2663644950947,0 C30.089873977181572,0 27.147188366435277,2.2621801564863944 27.121955402889554,5.500995717161467 C27.09672243934383,7.897409462241188 29.2206418881409,9.233722046122269 30.82511032877253,10.033100275630012 C32.47134367458329,10.848827467851041 33.02559877039801,11.371994274676348 33.01689774848569,12.100813823000422 C33.00558641999967,13.220287532999967 31.702173337534283,13.728826320555477 30.48751067857455,13.728826320555477 C28.797772223202198,13.728826320555477 27.895476250894717,13.476708106082095 26.51114366464476,12.856307994698806 L25.962979284168664,12.58956176095564 L25.370439691939737,16.321427618194697 C26.358875781179176,16.78866376310612 28.182609974001245,17.191364528886112 30.079432750886788,17.21115537848642 C34.523044641508115,17.21115537848642 37.4083035076331,14.973928901930849 37.43962718651744,11.514832580487216 C37.45528902595962,9.619213377467235 36.331116994888006,8.174481356645382 33.89309065505621,6.986169908905668 C32.41217672557951,6.215187246215746 31.5090106510808,5.7006251566079635 31.51858177518435,4.921037776700515 C31.51858177518435,4.225776625524775 32.28427170346843,3.4849104730961864 33.93920607119151,3.4849104730961864 C35.32266855525023,3.4608172648871216 36.32241597297568,3.7869360474311886 37.10202753631947,4.1242409623580265 L37.48313229607905,4.314405212865253 L38.055659537909634,0.7012844532279966 L38.05391933352717,0.7004239815062403Z"/>
    <path id="path-3" opacity="1" fill-rule="evenodd" d="M45.31906169973263,0.000035546732988223084 L48.65560955129513,0.000035546732988223084 L52.15036052785763,17.211217187357988 L48.14547771535763,17.211217187357988 C48.14547771535763,17.211217187357988 47.74905437551388,15.236119531107988 47.61929363332638,14.630772851420488 L42.08743328176388,14.625523827982988 C41.92123455129513,15.090367577982988 41.17904705129513,17.211217187357988 41.17904705129513,17.211217187357988 L36.64621013723263,17.211217187357988 L43.05801433645138,1.4285023436079882 C43.51217693410763,0.3075306639204882 44.28628582082638,0.000035546732988223084 45.31906169973263,0.000035546732988223084 L45.05239910207638,6.288853906107988 C45.05239910207638,6.288853906107988 43.68808025442013,10.110020898295488 43.33169597707638,11.101109765482988 L43.32992595754513,11.101964257670488 L46.91531414113888,11.101964257670488 L45.91543621145138,6.128819726420488 L45.62393230520138,4.642613671732988 C45.51504558645138,4.964757226420488 45.36654705129513,5.385167382670488 45.24807781301388,5.720616601420488 C45.12850994192013,6.059117577982988 45.03945964895138,6.311192773295488 45.05239910207638,6.288853906107988 L45.31906169973263,0.000035546732988223084Z"/>
    <path id="path-4" opacity="1" fill-rule="evenodd" d="M15.078421660462853,0.0008897872811003476 L10.77442553223332,11.75853891985204 L10.316611355045147,9.368570282793959 C9.514984159415263,6.612899073200186 7.020530233510529,3.62944231964256 4.228406615323365,2.1354894746609774 L8.162351363177475,17.21115537848642 L12.816493907556856,17.206706442080883 L19.732564204842234,0 L15.078421660462853,0.0008897872811003476Z"/>
    <path id="path-5" opacity="1" fill-rule="evenodd" d="M6.602047752603121,0 L0.05183978731780566,0 L0,0.3866605291979517 C5.095349417979157,1.9113982317741414 8.465771719238424,5.60467294169948 9.866282102421078,10.039840637450457 L8.442360202385222,1.5599752384883112 C8.197375401028497,0.3914223583752621 7.484160262607718,0.041904096760367084 6.602047752603121,0Z"/>
  </defs>
  <g opacity="1">
    <g opacity="1">
      <use xlink:href="#path-1" fill="rgb(0,70,134)" fill-opacity="1"/>
    </g>
    <g opacity="1">
      <use xlink:href="#path-2" fill="rgb(0,70,134)" fill-opacity="1"/>
    </g>
    <g opacity="1">
      <use xlink:href="#path-3" fill="rgb(0,70,134)" fill-opacity="1"/>
    </g>
    <g opacity="1">
      <use xlink:href="#path-4" fill="rgb(0,70,134)" fill-opacity="1"/>
    </g>
    <g opacity="1">
      <use xlink:href="#path-5" fill="rgb(239,155,17)" fill-opacity="1"/>
    </g>
  </g>
</svg>