<svg width="72" height="72" viewBox="0 0 72 72" fill="none" xmlns="http://www.w3.org/2000/svg">
<path d="M47.0429 16.962V54.8282H37.5791V16.962H47.0429ZM18.6515 20.1092C27.3644 20.1092 34.4319 27.1767 34.4319 35.8896C34.4319 44.6025 27.3644 51.67 18.6515 51.67C9.93865 51.67 2.87116 44.6025 2.87116 35.8896C2.87116 27.1767 9.93865 20.1092 18.6515 20.1092ZM56.8933 26.4258L59.665 29.1976L62.4368 26.4258H69.1288V33.1178L66.3571 35.8896L69.1288 38.6614V45.3534H62.4368L59.665 42.5816L56.8933 45.3534H50.2012V38.6614L52.973 35.8896L50.2012 33.1178V26.4258H56.8933ZM18.6515 29.5841C15.173 29.5841 12.346 32.4111 12.346 35.8896C12.346 39.3681 15.173 42.1951 18.6515 42.1951C22.1301 42.1951 24.9571 39.3681 24.9571 35.8896C24.9571 32.4111 22.1301 29.5841 18.6515 29.5841Z" fill="#23E5DB"/>
</svg>
