<svg width="47" height="47" viewBox="0 0 47 47" fill="none" xmlns="http://www.w3.org/2000/svg">
<path d="M23.5 0.367188C10.7586 0.367188 0.367188 10.7586 0.367188 23.5C0.367188 36.2414 10.7586 46.6328 23.5 46.6328C36.2414 46.6328 46.6328 36.2414 46.6328 23.5C46.6328 10.7586 36.2414 0.367188 23.5 0.367188ZM23.5 43.6953C12.3742 43.6953 3.30469 34.6258 3.30469 23.5C3.30469 12.3742 12.3742 3.30469 23.5 3.30469C34.6258 3.30469 43.6953 12.3742 43.6953 23.5C43.6953 34.6258 34.6258 43.6953 23.5 43.6953Z" fill="#87B919"/>
<path d="M24.9688 20.0117H22.0312V34.6992H24.9688V20.0117Z" fill="#87B919"/>
<path d="M24.9688 13.0352H22.0312V15.9727H24.9688V13.0352Z" fill="#87B919"/>
</svg>
