<svg width="22" height="26" viewBox="0 0 22 26" fill="none" xmlns="http://www.w3.org/2000/svg">
<path d="M21.08 4.00001C21.08 4.00001 17 3.28001 15.84 2.88001C14.2006 2.42603 12.6676 1.65104 11.33 0.600008C11.2411 0.514159 11.1235 0.464284 11 0.460009V0.460009C10.8663 0.45767 10.737 0.507946 10.64 0.600008C9.31534 1.65959 7.78706 2.43564 6.15 2.88001C5 3.28001 1 4.00001 0.92 4.00001C0.80339 4.01891 0.697238 4.07848 0.620359 4.16817C0.54348 4.25787 0.500841 4.37188 0.5 4.49001C0.5 12.59 0.6 16.33 3.08 20.14C5.2 23.4 10.58 25.38 10.81 25.47C10.8662 25.4803 10.9238 25.4803 10.98 25.47H11.15C11.38 25.38 16.8 23.4 18.92 20.14C21.4 16.33 21.5 12.59 21.5 4.49001C21.4992 4.37188 21.4565 4.25787 21.3796 4.16817C21.3028 4.07848 21.1966 4.01891 21.08 4.00001ZM18.08 19.6C16.34 22.27 11.9 24.1 10.98 24.46C10.06 24.1 5.66 22.27 3.92 19.6C1.72 16.22 1.51 13.2 1.5 4.91001C3.18323 4.66561 4.85225 4.3318 6.5 3.91001C8.11237 3.38657 9.63131 2.61022 11 1.61001C12.384 2.58345 13.9127 3.33265 15.53 3.83001V3.83001C17.1778 4.25169 18.8468 4.5855 20.53 4.83001C20.49 13.16 20.28 16.18 18.08 19.56V19.6Z" fill="#87B919"/>
<path d="M12.3333 16.4722C10.7994 16.4722 9.47333 15.6044 8.81333 14.3333H12.3333V13.1111H8.41C8.37944 12.9094 8.36111 12.7078 8.36111 12.5C8.36111 12.2922 8.37944 12.0906 8.41 11.8889H12.3333V10.6667H8.81333C9.47333 9.39556 10.8056 8.52778 12.3333 8.52778C13.3172 8.52778 14.2217 8.88833 14.9183 9.48722L16 8.40556C15.0283 7.53167 13.7389 7 12.3333 7C9.93778 7 7.90889 8.53389 7.15111 10.6667H5V11.8889H6.87C6.84556 12.0906 6.83333 12.2922 6.83333 12.5C6.83333 12.7078 6.84556 12.9094 6.87 13.1111H5V14.3333H7.15111C7.90889 16.4661 9.93778 18 12.3333 18C13.745 18 15.0283 17.4683 16 16.5944L14.9122 15.5128C14.2217 16.1117 13.3233 16.4722 12.3333 16.4722Z" fill="#87B919"/>
</svg>
