<svg width="18" height="18" viewBox="0 0 18 18" fill="none" xmlns="http://www.w3.org/2000/svg">
<path d="M9 16.5C9 16.5 15 13.5 15 9V3.75L9 1.5L3 3.75V9C3 13.5 9 16.5 9 16.5Z" stroke="white" stroke-width="1.4" stroke-linecap="round" stroke-linejoin="round"/>
<path fill-rule="evenodd" clip-rule="evenodd" d="M11.8545 9.3953L10.1563 8.96637L10.0469 9.47221C9.96602 9.84644 9.82359 10.0755 9.65558 10.2152C9.47943 10.3618 9.25931 10.4438 8.9646 10.4438C8.72815 10.4438 8.5131 10.3843 8.30998 10.2624C8.13472 10.1573 7.99457 9.99584 7.89589 9.74746C7.79139 9.47563 7.73242 9.14051 7.73242 8.73193C7.73242 8.43186 7.77985 8.14299 7.87452 7.86308L7.87487 7.86203C7.95504 7.62328 8.08704 7.44551 8.2736 7.31153C8.45086 7.18587 8.68918 7.10791 9.01953 7.10791C9.29342 7.10791 9.47932 7.17458 9.61243 7.27475C9.74009 7.37083 9.87391 7.55164 9.97869 7.88036L10.1193 8.32133L11.7816 7.92968L11.6347 7.42417C11.4644 6.83832 11.1527 6.35629 10.6883 6.00952C10.2213 5.66078 9.65956 5.5 9.03418 5.5C8.48088 5.5 7.96303 5.62778 7.49018 5.88745C7.00528 6.15261 6.63219 6.54395 6.37402 7.04562L6.3735 7.04663C6.11851 7.54489 6 8.11295 6 8.7356C6 9.31099 6.10582 9.85706 6.32111 10.3687L6.32202 10.3709C6.54616 10.8967 6.88168 11.3209 7.33553 11.6184L7.33881 11.6205C7.80631 11.9217 8.38012 12.0518 9.02319 12.0518C9.67868 12.0518 10.265 11.8703 10.751 11.4859C11.2422 11.0966 11.5606 10.547 11.7306 9.88098L11.8545 9.3953Z" fill="white"/>
</svg>
